<?xml version="1.0" encoding="utf-8"?>
<!-- Generator: Adobe Illustrator 24.0.0, SVG Export Plug-In . SVG Version: 6.00 Build 0)  -->
<svg version="1.1" id="Layer_1" xmlns="http://www.w3.org/2000/svg" xmlns:xlink="http://www.w3.org/1999/xlink" x="0px" y="0px"
	 viewBox="0 0 1000 329.91" style="enable-background:new 0 0 1000 329.91;" xml:space="preserve">
<style type="text/css">
	.st0{fill-rule:evenodd;clip-rule:evenodd;fill:#F19035;}
	.st1{fill-rule:evenodd;clip-rule:evenodd;fill:#28377A;}
	.st2{fill:#28377A;}
	.st3{fill:#F19035;}
	.st4{fill:#FFFFFF;}
</style>
<g>
	<g>
		<path class="st0" d="M317.27,189.49l0.09-0.12c54.21-74.15,76.25-141.85,49.7-168.4c-27.02-27.02-96.63-3.73-172.31,52.57
			c-7.79,5.8-15.65,11.95-23.53,18.43c-16.78,13.78-33.66,29.06-50.27,45.67c-12.74,12.76-24.7,25.67-35.82,38.57
			c-4.12,4.79-8.13,9.57-12.03,14.34l8.95,11.8c2.29-2.34,4.6-4.69,6.94-7.03c1.63-1.63,3.25-3.24,4.88-4.84
			c34.16-33.61,68.85-62.05,100.87-83.62c8.03-5.42,15.89-10.39,23.53-14.89c49.99-29.57,90.62-39.52,107.76-22.36
			c17.03,17.03,7.38,57.17-21.66,106.61c-2.74,4.67-5.66,9.43-8.75,14.27c-23.21,36.32-55.85,76.7-95.32,116.15
			c-1.84,1.84-3.7,3.68-5.55,5.49c-0.92,0.91-1.86,1.82-2.78,2.72c0.91,0.74,1.83,1.49,2.74,2.2l2.75-2.24l8.41-6.89l0.08-0.06
			c14.84-12.49,29.74-26.13,44.4-40.78c19.16-19.16,36.56-38.69,51.93-57.99l0.19-0.26l4.94-6.48l8.98-11.76L317.27,189.49z"/>
		<path class="st1" d="M316.42,190.59l-8.98,11.76c-2.28-2.34-4.6-4.69-6.93-7.02c-1.63-1.63-3.25-3.24-4.88-4.84
			c-34.16-33.59-68.85-62.04-100.88-83.62c-8.02-5.4-15.88-10.39-23.53-14.89C121.25,62.4,80.62,52.45,63.46,69.61
			c-17.01,17.03-7.34,57.17,21.68,106.61c2.74,4.67,5.66,9.44,8.75,14.27c23.21,36.32,55.85,76.7,95.32,116.15
			c1.86,1.86,3.7,3.69,5.56,5.49c0.91,0.91,1.81,1.79,2.72,2.68l-2.75,2.24c-0.91-0.72-1.83-1.46-2.74-2.2
			c-0.27-0.22-0.54-0.44-0.81-0.65l-1.08-0.9l-9.17-7.65l-0.18-0.15c-13.91-11.83-27.86-24.69-41.61-38.42
			c-19.76-19.76-37.65-39.92-53.38-59.82l-0.08-0.09l-3.62-4.8l-8.95-11.8l-1.78-2.36l-0.23-0.29
			C17.67,114.32-3.91,47.35,22.47,20.97c27.01-27.02,96.63-3.73,172.28,52.57c7.79,5.79,15.65,11.94,23.53,18.43
			c16.76,13.78,33.64,29.06,50.26,45.67c12.76,12.76,24.73,25.67,35.85,38.57C308.52,181.01,312.54,185.81,316.42,190.59z"/>
	</g>
	<g>
		<polygon class="st2" points="419.64,9.73 419.64,26.4 455.14,26.4 417.04,93.63 483.4,93.63 483.4,76.94 445.66,76.94
			483.76,9.73 		"/>
		<path class="st2" d="M527.54,6.53l-36.51,87.1h18.08l5.62-13.4l7.01-16.69l5.75-13.75l5.75,13.75l6.94,16.69l5.55,13.4h18.08
			L527.54,6.53z"/>
		<path class="st2" d="M615.16,58.93c11.4-3.49,18.89-14.5,17.66-26.57c-1.29-12.88-12.04-22.63-24.99-22.63h-36.35v83.88h16.69
			V60.03h7.49l23.15,33.61h20.24L615.16,58.93z M608.16,43.34h-20.02V26.39h20.02c3,0,5.78,1.61,7.3,4.16
			c1.58,2.65,1.58,5.97,0,8.62C613.94,41.76,611.16,43.34,608.16,43.34z"/>
		<polygon class="st2" points="706.59,93.63 723.27,93.63 723.27,9.72 684.67,64.56 646.07,9.73 646.07,93.63 662.75,93.63
			662.75,61.59 684.67,94.88 706.59,61.59 		"/>
		<polygon class="st2" points="785.28,76.94 748.48,76.94 748.48,60.03 779.67,60.03 779.67,43.35 748.48,43.35 748.48,26.4
			785.28,26.4 785.28,9.73 731.8,9.73 731.8,93.63 785.28,93.63 		"/>
		<path class="st2" d="M818.91,9.73h-25.18v83.91h25.18c23.12,0,41.94-18.82,41.94-41.97C860.85,28.55,842.03,9.73,818.91,9.73z
			 M818.91,76.95h-8.49V26.39h8.49c13.91,0,25.28,11.36,25.28,25.28C844.19,65.61,832.83,76.95,818.91,76.95z"/>
		<path class="st3" d="M454.55,122.73h-36.35v83.91h16.69v-33.61h19.69c13.59-0.29,24.6-11.59,24.6-25.15
			C479.18,134.32,468.17,123.02,454.55,122.73z M454.55,156.33h-19.66v-16.95h19.63c4.58,0.16,8.17,3.87,8.17,8.49
			C462.68,152.46,459.1,156.17,454.55,156.33z"/>
		<path class="st3" d="M531.32,171.93c11.4-3.49,18.89-14.5,17.66-26.57c-1.29-12.88-12.04-22.63-24.99-22.63h-36.35v83.88h16.66
			v-33.58h7.52l23.15,33.61h20.24L531.32,171.93z M524.31,156.33H504.3v-16.95h20.02c2.97,0,5.78,1.61,7.3,4.16
			c1.58,2.65,1.58,5.97,0,8.62C530.09,154.75,527.28,156.33,524.31,156.33z"/>
		<path class="st3" d="M597.89,119.53l-36.48,87.1h18.08l5.62-13.4h25.41l5.58,13.4h18.08L597.89,119.53z M590.25,178.38l7.61-15.58
			l7.54,15.58H590.25z"/>
		<polygon class="st3" points="630.12,139.4 648.06,139.4 648.06,206.62 664.73,206.62 664.73,139.4 682.67,139.4 682.67,122.72
			630.12,122.72 		"/>
		<rect x="691.11" y="122.72" class="st3" width="16.68" height="83.91"/>
		<polygon class="st3" points="785.87,122.72 762.92,122.72 733,154.39 733,122.72 716.32,122.72 716.32,206.62 733,206.62
			733,174.91 763.29,206.62 786.36,206.62 746.26,164.64 		"/>
		<path class="st3" d="M822.93,159.27l-14.63-5.5c-3.36-1.26-5.34-4.74-4.7-8.27c0.64-3.53,3.71-6.1,7.31-6.1h3.59
			c2.81,0,5.41,1.63,6.64,4.15l0.71,1.46l14.96-7.37l-0.71-1.44c-3.99-8.18-12.44-13.47-21.63-13.47h-3.56
			c-11.66,0-21.63,8.33-23.72,19.8c-2.08,11.47,4.34,22.77,15.25,26.87l14.63,5.49c2.87,1.09,4.81,3.88,4.82,6.95v0.38
			c-0.01,4.09-3.34,7.42-7.42,7.42h-3.58c-3.6,0-6.67-2.58-7.29-6.13l-0.27-1.59l-16.43,2.85l0.27,1.59
			c2,11.56,11.96,19.96,23.69,19.96v-1.61l0.05,1.61h3.56c13.27-0.01,24.08-10.82,24.1-24.1v-0.39
			C838.53,171.86,832.25,162.8,822.93,159.27z"/>
		<polygon class="st3" points="897.51,156.34 863.77,156.34 863.77,122.72 847.09,122.72 847.09,206.62 863.77,206.62
			863.77,173.02 897.51,173.02 897.51,206.62 914.19,206.62 914.19,122.72 897.51,122.72 		"/>
		<path class="st3" d="M958.41,119.53l-36.48,87.1h18.08l5.59-13.4h25.44l5.59,13.4h18.05L958.41,119.53z M950.77,178.38l7.61-15.58
			l7.54,15.58H950.77z"/>
	</g>
	<rect x="418.19" y="235.45" class="st2" width="576.48" height="74.61"/>
	<g>
		<path class="st4" d="M481.06,248.08h9.87v50.44h-9.87v-20.9h-18.73v20.9h-9.94v-50.44h9.94v20.03h18.73V248.08z"/>
		<path class="st4" d="M560.76,291.93c-5.09,5.07-11.29,7.6-18.59,7.6c-7.3,0-13.49-2.53-18.56-7.6c-5.07-5.07-7.6-11.28-7.6-18.63
			c0-7.35,2.53-13.56,7.6-18.63c5.07-5.07,11.26-7.6,18.56-7.6c7.3,0,13.5,2.53,18.59,7.6c5.09,5.07,7.64,11.28,7.64,18.63
			C568.39,280.65,565.85,286.86,560.76,291.93z M530.56,285.15c3.12,3.1,6.99,4.65,11.6,4.65s8.48-1.55,11.6-4.65
			c3.12-3.1,4.68-7.05,4.68-11.85c0-4.8-1.56-8.77-4.68-11.89c-3.12-3.12-6.99-4.68-11.6-4.68s-8.48,1.56-11.6,4.68
			c-3.12,3.12-4.69,7.09-4.69,11.89C525.88,278.1,527.44,282.05,530.56,285.15z"/>
		<path class="st4" d="M610.62,299.53c-5,0-9.2-1.12-12.61-3.35c-3.41-2.23-5.81-5.27-7.2-9.11l8.5-4.97
			c1.97,5.14,5.84,7.71,11.6,7.71c2.78,0,4.83-0.5,6.12-1.51c1.3-1.01,1.95-2.28,1.95-3.82c0-1.78-0.79-3.16-2.38-4.14
			c-1.59-0.98-4.42-2.05-8.5-3.21c-2.26-0.67-4.17-1.35-5.73-2.02c-1.56-0.67-3.12-1.57-4.68-2.7c-1.56-1.13-2.75-2.56-3.57-4.29
			c-0.82-1.73-1.22-3.75-1.22-6.05c0-4.56,1.62-8.2,4.86-10.92c3.24-2.71,7.15-4.07,11.71-4.07c4.08,0,7.68,1,10.77,2.99
			c3.1,1.99,5.51,4.77,7.24,8.32l-8.36,4.83c-2.02-4.33-5.24-6.49-9.66-6.49c-2.07,0-3.69,0.47-4.86,1.4
			c-1.18,0.94-1.77,2.15-1.77,3.64c0,1.58,0.66,2.87,1.98,3.85c1.32,0.99,3.86,2.06,7.6,3.21c1.54,0.48,2.71,0.85,3.5,1.12
			c0.79,0.26,1.87,0.67,3.24,1.22c1.37,0.55,2.43,1.07,3.17,1.55s1.6,1.13,2.56,1.95c0.96,0.82,1.69,1.66,2.2,2.52
			c0.5,0.86,0.94,1.91,1.3,3.13c0.36,1.23,0.54,2.56,0.54,4c0,4.66-1.69,8.36-5.08,11.1C620.46,298.16,616.05,299.53,610.62,299.53z
			"/>
		<path class="st4" d="M672.23,248.08c4.85,0,8.94,1.63,12.25,4.9c3.32,3.27,4.97,7.28,4.97,12.03c0,4.76-1.66,8.77-4.97,12.03
			c-3.31,3.27-7.4,4.9-12.25,4.9h-8.86v16.57h-9.94v-50.44H672.23z M672.23,272.65c2.11,0,3.87-0.73,5.26-2.2s2.09-3.28,2.09-5.44
			c0-2.21-0.7-4.04-2.09-5.48s-3.15-2.16-5.26-2.16h-8.86v15.28H672.23z"/>
		<path class="st4" d="M713.95,248.08h9.94v50.44h-9.94V248.08z"/>
		<path class="st4" d="M784.64,248.08v9.51h-13.62v40.93h-9.94v-40.93h-13.55v-9.51H784.64z"/>
		<path class="st4" d="M840.63,298.52l-3.03-9.08H817.5l-3.03,9.08h-10.74l17.65-50.44h12.32l17.73,50.44H840.63z M820.67,280.15
			h13.83l-6.92-20.61L820.67,280.15z"/>
		<path class="st4" d="M884.3,289.01h19.24v9.51h-29.18v-50.44h9.94V289.01z"/>
		<path class="st4" d="M944.39,299.53c-5,0-9.2-1.12-12.61-3.35c-3.41-2.23-5.81-5.27-7.2-9.11l8.5-4.97
			c1.97,5.14,5.84,7.71,11.6,7.71c2.78,0,4.83-0.5,6.12-1.51c1.3-1.01,1.95-2.28,1.95-3.82c0-1.78-0.79-3.16-2.38-4.14
			s-4.42-2.05-8.5-3.21c-2.26-0.67-4.17-1.35-5.73-2.02c-1.56-0.67-3.12-1.57-4.68-2.7c-1.56-1.13-2.75-2.56-3.57-4.29
			c-0.82-1.73-1.22-3.75-1.22-6.05c0-4.56,1.62-8.2,4.86-10.92c3.24-2.71,7.15-4.07,11.71-4.07c4.08,0,7.68,1,10.77,2.99
			c3.1,1.99,5.51,4.77,7.24,8.32l-8.36,4.83c-2.02-4.33-5.24-6.49-9.66-6.49c-2.07,0-3.69,0.47-4.86,1.4
			c-1.18,0.94-1.77,2.15-1.77,3.64c0,1.58,0.66,2.87,1.98,3.85c1.32,0.99,3.86,2.06,7.6,3.21c1.54,0.48,2.71,0.85,3.5,1.12
			c0.79,0.26,1.87,0.67,3.24,1.22c1.37,0.55,2.43,1.07,3.17,1.55s1.6,1.13,2.56,1.95c0.96,0.82,1.69,1.66,2.2,2.52
			c0.5,0.86,0.94,1.91,1.3,3.13c0.36,1.23,0.54,2.56,0.54,4c0,4.66-1.69,8.36-5.08,11.1C954.23,298.16,949.82,299.53,944.39,299.53z
			"/>
	</g>
</g>
</svg>
